<svg xmlns="http://www.w3.org/2000/svg" xmlns:xlink="http://www.w3.org/1999/xlink" viewBox="119.7 46.63 785.57 785.57"><path fill="#AFBAB1" d="M504.112 46.7215C720.911 42.0997 900.439 214.044 905.172 430.841C909.906 647.638 738.054 827.254 521.259 832.099C304.307 836.948 124.531 664.944 119.794 447.989C115.057 231.034 287.154 51.3467 504.112 46.7215Z"/><path fill="#151932" d="M499.858 145.216C503.028 144.87 509.952 144.876 513.189 144.891C576.277 145.239 636.603 170.818 680.714 215.924C713.851 249.452 736.648 289.257 748.087 334.935C750.948 346.358 754.545 363.479 754.493 375.088L625.627 518.177L585.653 562.408C579.845 568.824 568.998 580.216 564.043 586.929C563.743 602.753 569.203 609.587 550.657 609.18C547.831 619.86 545.245 632.521 542.725 643.42C558.391 651.301 551.868 667.37 553.029 681.766C553.877 692.289 547.56 696.808 538.009 697.173C538.084 706.55 539.536 736.829 536.89 743.587C535.62 746.83 533.24 749.882 529.964 751.26C526.376 752.77 522.21 751.805 518.775 750.389C515.392 748.263 514.369 746.72 512.238 743.516C511.187 745.169 510.379 746.32 509.117 747.768C504.434 753.186 495.553 753.412 490.556 748.321C486.403 744.089 485.906 737.9 485.96 732.283C486.072 720.755 485.936 709.201 486.377 697.682C485.283 697.483 484.192 697.267 483.105 697.035C469.13 693.954 471.297 680.791 471.406 669.823C471.532 657.093 468.765 650.205 481.473 643.129C478.687 632.548 475.981 619.941 473.697 609.194C455.133 609.352 459.928 603.162 460.09 587.059C456.05 581.664 448.623 573.955 443.909 568.745L415.958 537.676L312.718 422.683L285.058 392.107C280.713 387.301 273.244 379.482 269.801 374.376C270.074 363.78 273.097 347.606 275.66 337.286C285.418 296.668 304.913 259.034 332.462 227.632C376.316 177.332 433.556 149.725 499.858 145.216Z"/><path fill="#AFBAB1" d="M508.11 353.211C528.986 352.371 548.804 358.559 564.905 372.044L537.291 579.968L518.125 579.992L486.885 579.969L467.165 431.03C464.589 411.763 462.555 391.481 459.368 372.341C474.673 359.673 488.403 354.525 508.11 353.211Z"/><path fill="#FAFAF8" d="M509.406 156.053C513.598 155.888 515.867 156.545 518.958 159.719C525.215 166.145 530.546 177.391 533.933 185.706C556.176 240.307 563.894 300.579 566.118 358.914C549.103 347.788 536.063 343.147 515.601 342.017C493.603 341.798 476.851 346.321 458.562 358.785C459.484 324.704 462.432 291.278 469.259 257.726C473.989 234.48 489.237 169.569 509.406 156.053Z"/><path fill="#FAFAF8" d="M491.015 158.077L491.832 158.201C491.701 159.453 485.852 169.392 484.758 171.638C479.804 181.972 475.537 192.622 471.985 203.518C456.048 251.866 448.89 306.169 447.469 356.902C442.466 352.793 433.953 348.645 427.796 346.699C407.335 340.231 388.987 342.343 370.153 351.857C366.884 353.662 363.513 356.059 360.394 358.173C361.912 284.809 415.17 178.664 491.015 158.077Z"/><path fill="#FAFAF8" d="M531.374 157.626C545.814 160.156 569.412 174.718 580.813 184.268C632.311 227.403 658.324 292.588 664.326 358.21C661.812 356.392 658.985 354.654 656.354 352.968C630.033 338.508 601.809 339.69 577.006 356.752C575.798 343.564 576.013 329.414 574.568 315.552C569.622 268.08 557.754 198.235 531.374 157.626Z"/><path fill="#AFBAB1" d="M402.889 354.208C418.618 354.157 440.57 360.821 450.201 373.961C451.621 389.588 454.731 409.266 456.795 425.033L469.941 525.51L474.255 558.678C475.071 564.975 476.255 572.609 476.605 578.861C472.567 570.603 467.26 561.367 462.822 553.205C460.268 547.832 456.214 540.77 453.346 535.402L431.908 495.458L364.406 368.969C375.288 359.252 388.569 355.027 402.889 354.208Z"/><path fill="#AFBAB1" d="M612.53 354.687C629.567 352.25 646.597 358.289 659.886 368.747C651.433 385.929 640.324 405.552 631.178 422.768L564.25 547.574L547.248 579.502C547.857 570.435 550.019 557.327 551.289 548.008L558.851 491.653L568.879 415.08C570.567 402.293 572.308 385.708 574.639 373.27C584.778 362.693 598.095 356.548 612.53 354.687Z"/><path fill="#FAFAF8" d="M449.798 165.038C450.191 165.005 450.675 165.115 451.091 165.176C449.741 166.827 445.838 168.822 443.924 170.233C386.897 212.295 355.234 285.925 349.364 354.917C330.116 343.149 311.571 343.329 291.325 352.336C288.414 353.695 285.821 355.406 283.097 357.106C285.229 346.159 287.203 336.538 290.469 325.867C313.799 249.655 372.676 187.426 449.798 165.038Z"/><path fill="#FAFAF8" d="M573.174 164.96C575.345 165.101 580.316 166.767 582.573 167.503C601.009 173.653 618.576 182.151 634.841 192.787C676.676 220.586 708.983 260.541 727.408 307.268C734.389 325.287 737.511 337.975 741.236 356.693L735.529 353.415C714.204 342.302 695.701 343.84 674.912 354.945C674.042 347.442 673.536 340.935 672.309 333.336C663.537 278.999 639.019 224.7 599.221 186.068C590.932 178.021 582.493 171.702 573.174 164.96Z"/><path fill="#AFBAB1" d="M313.146 357.171C319.452 356.455 325.838 357.051 331.903 358.922C339.822 361.391 352.081 368.373 356.683 375.296C360.101 380.437 364.079 388.488 367.147 394.187L390.809 438.569C415.386 484.8 441.416 531.967 465.377 578.365L449.75 560.964L281.417 373.504C291.665 363.603 299.015 359.255 313.146 357.171Z"/><path fill="#AFBAB1" d="M701.867 357.193C718.662 355.753 731.159 361.703 742.796 373.485L579.085 555.358C571.933 563.274 564.918 571.312 558.042 579.47C565.739 564.088 575.379 547.285 583.664 531.987L628.952 447.607L654.96 398.399C657.239 394.091 665.586 377.48 668.192 374.36C676.093 364.9 689.744 358.624 701.867 357.193Z"/><path fill="#FAFAF8" d="M484.873 651.54C500.154 650.469 516.643 651.839 531.914 651.274C547.119 650.711 544.619 659.448 544.433 670.973C544.363 675.251 546.444 690.009 539.288 687.931C535.027 682.895 541.635 664.101 534.26 661.996C532.281 662.396 532.373 662.383 530.659 663.48C528.631 666.792 529.44 684.999 529.464 690.25L529.444 700.905L495.077 700.825C494.769 688.873 495.438 676.795 494.809 664.865C494.722 663.212 491.453 662.077 490.114 661.908C482.4 664.942 490.374 686.616 484.081 688.157C483.477 687.918 481.458 687.023 481.265 686.266C479.271 678.455 480.222 664.43 480.617 656.122C480.717 654.037 483.875 652.202 484.873 651.54Z"/><path fill="#FAFAF8" d="M469.455 589.064C495.804 588.719 528.718 588.405 554.88 589.312C554.909 592.822 554.799 596.453 554.737 599.974L469.04 599.937C469.042 596.476 469.3 592.559 469.455 589.064Z"/><path fill="#AFBAB1" d="M483.103 609.157C501.567 608.735 522.437 609.087 541.008 609.266C538.644 620.31 535.818 631.739 533.293 642.794L527.997 642.593C530.96 636.963 531.153 633.213 529.705 627.203C526.719 619.074 519.447 613.489 510.568 614.423C505.282 615.004 500.476 617.757 497.3 622.022C491.886 629.364 494.239 634.152 495.519 642.07L494.926 642.535C492.45 642.409 490.535 641.886 490.031 639.175C488.22 629.434 485.391 618.729 483.103 609.157Z"/><path fill="#FAFAF8" d="M510.406 623.295C513.884 622.629 517.45 623.892 519.734 626.597C522.019 629.303 522.665 633.031 521.424 636.348C520.184 639.664 517.25 642.054 513.751 642.597C508.472 643.416 503.509 639.854 502.597 634.589C501.685 629.325 505.159 624.301 510.406 623.295Z"/><path fill="#FAFAF8" d="M520.09 709.437C522.89 709.297 526.569 709.416 529.43 709.433C529.391 715.924 530.207 737.416 528.468 741.73C518.379 746.339 520.05 732.799 520.01 726.881C519.971 721.08 520.074 715.241 520.09 709.437Z"/><path fill="#FAFAF8" d="M494.993 709.463C497.928 709.299 501.108 709.39 504.065 709.409C504.027 715.672 504.852 737.499 503.074 741.595C502.061 742.166 500.973 742.862 499.784 742.936C498.622 743.009 497.479 742.463 496.751 741.566C493.664 737.761 494.988 715.694 494.993 709.463Z"/></svg>