<svg xmlns="http://www.w3.org/2000/svg" width="256" height="256" viewBox="0 0 100 100"><path fill="#000000" d="M10.46 44.06L15.52 44.06Q17.97 44.06 19.00 44.93Q20.04 45.79 20.04 47.73L20.04 47.73Q20.04 48.72 19.81 50.01L19.81 50.01Q19.24 53.20 17.86 54.57Q16.48 55.94 13.43 55.94L13.43 55.94L8.37 55.94L10.46 44.06ZM15.02 47.10L15.02 47.10L13.52 47.10L12.51 52.90L14.01 52.90Q14.76 52.90 15.12 52.72Q15.48 52.54 15.59 51.89L15.59 51.89L16.26 48.11Q16.28 48.00 16.28 47.81L16.28 47.81Q16.28 47.37 15.97 47.24Q15.67 47.10 15.02 47.10ZM7.95 55.03L7.80 55.88L-0.25 55.03L7.95 55.03ZM8.60 51.36L8.45 52.21L0.39 51.36L8.60 51.36ZM8.92 49.53L8.77 50.39L0.71 49.53L8.92 49.53ZM9.25 47.71L9.09 48.57L1.04 47.71L9.25 47.71ZM9.55 45.89L9.42 46.74L1.36 45.89L9.55 45.89ZM8.28 53.18L8.12 54.04L0.07 53.18L8.28 53.18ZM9.87 44.06L9.72 44.92L1.68 44.06L9.87 44.06ZM26.44 44.06L32.29 44.06Q33.66 44.06 34.28 44.54Q34.90 45.01 34.90 46.00L34.90 46.00Q34.90 47.44 34.26 48.38Q33.62 49.31 32.71 49.53L32.71 49.53L32.69 49.65Q34.40 49.97 34.40 51.91L34.40 51.91Q34.40 53.62 33.47 54.78Q32.54 55.94 30.85 55.94L30.85 55.94L24.35 55.94L26.44 44.06ZM30.20 51.21L30.20 51.21L28.78 51.21L28.44 53.14L29.84 53.14Q30.32 53.14 30.56 52.76Q30.81 52.38 30.81 51.80Q30.81 51.21 30.20 51.21ZM30.73 46.67L30.73 46.67L29.59 46.67L29.27 48.43L30.39 48.43Q31.27 48.43 31.27 47.20L31.27 47.20Q31.27 46.67 30.73 46.67ZM23.93 55.03L23.78 55.88L15.72 55.03L23.93 55.03ZM24.58 51.36L24.43 52.21L16.37 51.36L24.58 51.36ZM24.90 49.53L24.75 50.39L16.69 49.53L24.90 49.53ZM25.22 47.71L25.07 48.57L17.02 47.71L25.22 47.71ZM25.53 45.89L25.40 46.74L17.34 45.89L25.53 45.89ZM24.26 53.18L24.10 54.04L16.05 53.18L24.26 53.18ZM25.85 44.06L25.70 44.92L17.66 44.06L25.85 44.06ZM42.38 55.94L39.06 55.94L40.80 45.89L44.15 45.89L42.38 55.94ZM38.58 55.03L38.43 55.88L30.37 55.03L38.58 55.03ZM39.23 51.36L39.08 52.21L31.02 51.36L39.23 51.36ZM39.55 49.53L39.40 50.39L31.34 49.53L39.55 49.53ZM39.87 47.71L39.72 48.57L31.67 47.71L39.87 47.71ZM40.18 45.89L40.04 46.74L31.99 45.89L40.18 45.89ZM38.90 53.18L38.75 54.04L30.70 53.18L38.90 53.18ZM56.82 55.94L54.24 55.94L52.28 52.18L52.20 52.18L51.54 55.94L48.35 55.94L50.10 45.89L52.68 45.89L54.66 49.63L54.77 49.63L55.42 45.89L58.59 45.89L56.82 55.94ZM47.87 55.03L47.72 55.88L39.66 55.03L47.87 55.03ZM48.52 51.36L48.37 52.21L40.31 51.36L48.52 51.36ZM48.84 49.53L48.69 50.39L40.63 49.53L48.84 49.53ZM49.16 47.71L49.01 48.57L40.96 47.71L49.16 47.71ZM49.47 45.89L49.34 46.74L41.28 45.89L49.47 45.89ZM48.20 53.18L48.04 54.04L39.99 53.18L48.20 53.18ZM64.71 45.89L68.98 45.89Q71.05 45.89 71.94 46.63Q72.84 47.37 72.84 49.00L72.84 49.00Q72.84 49.78 72.63 50.92L72.63 50.92Q72.15 53.62 70.99 54.78Q69.82 55.94 67.21 55.94L67.21 55.94L62.96 55.94L64.71 45.89ZM68.53 48.66L68.53 48.66L67.42 48.66L66.63 53.22L67.73 53.22Q68.28 53.22 68.57 53.08Q68.87 52.94 68.94 52.50L68.94 52.50L69.49 49.36Q69.51 49.29 69.51 49.06L69.51 49.06Q69.51 48.66 68.53 48.66ZM62.48 55.03L62.33 55.88L54.27 55.03L62.48 55.03ZM63.13 51.36L62.98 52.21L54.92 51.36L63.13 51.36ZM63.45 49.53L63.30 50.39L55.24 49.53L63.45 49.53ZM63.77 47.71L63.62 48.57L55.57 47.71L63.77 47.71ZM64.08 45.89L63.95 46.74L55.89 45.89L64.08 45.89ZM62.81 53.18L62.65 54.04L54.60 53.18L62.81 53.18ZM84.75 50.03L84.43 51.85L81.60 51.85L81.37 53.14L84.88 53.14L84.39 55.94L77.68 55.94L79.43 45.89L86.12 45.89L85.23 48.74L82.13 48.74L81.90 50.03L84.75 50.03ZM77.21 55.03L77.06 55.88L69 55.03L77.21 55.03ZM77.85 51.36L77.70 52.21L69.65 51.36L77.85 51.36ZM78.18 49.53L78.03 50.39L69.97 49.53L78.18 49.53ZM78.50 47.71L78.35 48.57L70.29 47.71L78.50 47.71ZM78.80 45.89L78.67 46.74L70.62 45.89L78.80 45.89ZM77.53 53.18L77.38 54.04L69.32 53.18L77.53 53.18ZM80.72 55.03L88.93 55.03L88.40 55.84L80.72 55.03ZM83.14 51.36L91.34 51.36L90.81 52.18L83.14 51.36ZM89.61 54.00L81.94 53.18L90.15 53.18L89.61 54.00ZM90.20 45.89L90.47 46.74L82.41 45.89L90.20 45.89ZM91.59 50.39L83.55 49.53L91.33 49.53L91.59 50.39ZM91.04 48.57L83.00 47.71L90.77 47.71L91.04 48.57ZM90.77 45.89L94.59 45.89L95.09 48.13L95.26 48.13L96.61 45.89L100.25 45.89L96.93 50.86L98.51 55.94L94.78 55.94L94.19 53.58L94.02 53.58L92.62 55.94L89.01 55.94L92.33 50.86L90.77 45.89Z"></path></svg>